<svg width="140" height="140" viewBox="0 0 140 140" fill="none" xmlns="http://www.w3.org/2000/svg">
<g filter="url(#filter0_d_13_169)">
<circle cx="70" cy="62" r="40" fill="white"/>
</g>
<path d="M80.4167 58.875V51.5833C80.4167 51.0308 80.1972 50.5009 79.8065 50.1102C79.4158 49.7195 78.8859 49.5 78.3333 49.5H53.3333C52.7808 49.5 52.2509 49.7195 51.8602 50.1102C51.4695 50.5009 51.25 51.0308 51.25 51.5833V72.4167C51.25 72.9692 51.4695 73.4991 51.8602 73.8898C52.2509 74.2805 52.7808 74.5 53.3333 74.5H78.3333C78.8859 74.5 79.4158 74.2805 79.8065 73.8898C80.1972 73.4991 80.4167 72.9692 80.4167 72.4167V65.125L88.75 73.4583V50.5417L80.4167 58.875Z" fill="#4766B8"/>
<defs>
<filter id="filter0_d_13_169" x="0" y="0" width="140" height="140" filterUnits="userSpaceOnUse" color-interpolation-filters="sRGB">
<feFlood flood-opacity="0" result="BackgroundImageFix"/>
<feColorMatrix in="SourceAlpha" type="matrix" values="0 0 0 0 0 0 0 0 0 0 0 0 0 0 0 0 0 0 127 0" result="hardAlpha"/>
<feOffset dy="8"/>
<feGaussianBlur stdDeviation="15"/>
<feComposite in2="hardAlpha" operator="out"/>
<feColorMatrix type="matrix" values="0 0 0 0 0.704167 0 0 0 0 0.73375 0 0 0 0 1 0 0 0 0.3 0"/>
<feBlend mode="normal" in2="BackgroundImageFix" result="effect1_dropShadow_13_169"/>
<feBlend mode="normal" in="SourceGraphic" in2="effect1_dropShadow_13_169" result="shape"/>
</filter>
</defs>
</svg>
