<svg width="140" height="140" viewBox="0 0 140 140" fill="none" xmlns="http://www.w3.org/2000/svg">
<g filter="url(#filter0_d_13_166)">
<circle cx="70" cy="62" r="40" fill="#4766B8"/>
</g>
<path d="M51.8125 41.1667L49.1667 43.8126L54.8542 49.5001H53.3334C52.7808 49.5001 52.2509 49.7196 51.8602 50.1103C51.4695 50.501 51.25 51.0309 51.25 51.5834V72.4167C51.25 72.9693 51.4695 73.4992 51.8602 73.8899C52.2509 74.2806 52.7808 74.5001 53.3334 74.5001H78.3334C78.75 74.5001 79.1459 74.3334 79.4584 74.1251L86.1042 80.7501L88.75 78.1042M88.75 50.5417L80.4167 58.8751V51.5834C80.4167 51.0309 80.1972 50.501 79.8065 50.1103C79.4158 49.7196 78.8859 49.5001 78.3334 49.5001H65.4584L88.75 72.7917V50.5417Z" fill="white"/>
<defs>
<filter id="filter0_d_13_166" x="0" y="0" width="140" height="140" filterUnits="userSpaceOnUse" color-interpolation-filters="sRGB">
<feFlood flood-opacity="0" result="BackgroundImageFix"/>
<feColorMatrix in="SourceAlpha" type="matrix" values="0 0 0 0 0 0 0 0 0 0 0 0 0 0 0 0 0 0 127 0" result="hardAlpha"/>
<feOffset dy="8"/>
<feGaussianBlur stdDeviation="15"/>
<feComposite in2="hardAlpha" operator="out"/>
<feColorMatrix type="matrix" values="0 0 0 0 0.204167 0 0 0 0 0.278444 0 0 0 0 1 0 0 0 0.3 0"/>
<feBlend mode="normal" in2="BackgroundImageFix" result="effect1_dropShadow_13_166"/>
<feBlend mode="normal" in="SourceGraphic" in2="effect1_dropShadow_13_166" result="shape"/>
</filter>
</defs>
</svg>
