<svg width="200" height="120" viewBox="0 0 200 120" fill="none" xmlns="http://www.w3.org/2000/svg">
<g filter="url(#filter0_d_16_722)">
<rect x="20" y="12" width="160" height="80" rx="40" fill="#F84646"/>
</g>
<path d="M93 35.3335H108C108.884 35.3335 109.732 35.6847 110.357 36.3098C110.982 36.9349 111.333 37.7828 111.333 38.6668V40.3335C111.333 40.7755 111.158 41.1994 110.845 41.512C110.533 41.8246 110.109 42.0002 109.667 42.0002C109.225 42.0002 108.801 41.8246 108.488 41.512C108.176 41.1994 108 40.7755 108 40.3335V38.6668H93V65.3335H108V63.6668C108 63.2248 108.176 62.8009 108.488 62.4883C108.801 62.1758 109.225 62.0002 109.667 62.0002C110.109 62.0002 110.533 62.1758 110.845 62.4883C111.158 62.8009 111.333 63.2248 111.333 63.6668V65.3335C111.333 66.2176 110.982 67.0654 110.357 67.6905C109.732 68.3156 108.884 68.6668 108 68.6668H93C92.1159 68.6668 91.2681 68.3156 90.6429 67.6905C90.0178 67.0654 89.6666 66.2176 89.6666 65.3335V38.6668C89.6666 37.7828 90.0178 36.9349 90.6429 36.3098C91.2681 35.6847 92.1159 35.3335 93 35.3335Z" fill="white"/>
<path d="M110.992 59.1585C111.642 59.8085 112.692 59.8085 113.342 59.1585L119.322 53.1785C119.634 52.866 119.81 52.4421 119.81 52.0002C119.81 51.5583 119.634 51.1344 119.322 50.8219L113.342 44.8419C113.025 44.5555 112.61 44.4019 112.183 44.4126C111.756 44.4234 111.35 44.5978 111.048 44.8998C110.746 45.2017 110.572 45.6082 110.561 46.0351C110.55 46.462 110.704 46.8767 110.99 47.1935L114.117 50.3335H99.6667C99.2246 50.3335 98.8007 50.5091 98.4882 50.8217C98.1756 51.1343 98 51.5582 98 52.0002C98 52.4422 98.1756 52.8662 98.4882 53.1787C98.8007 53.4913 99.2246 53.6669 99.6667 53.6669H114.117L110.99 56.8069C110.679 57.1192 110.504 57.5422 110.505 57.9831C110.505 58.4239 110.68 58.8466 110.992 59.1585Z" fill="white"/>
<defs>
<filter id="filter0_d_16_722" x="0" y="0" width="200" height="120" filterUnits="userSpaceOnUse" color-interpolation-filters="sRGB">
<feFlood flood-opacity="0" result="BackgroundImageFix"/>
<feColorMatrix in="SourceAlpha" type="matrix" values="0 0 0 0 0 0 0 0 0 0 0 0 0 0 0 0 0 0 127 0" result="hardAlpha"/>
<feOffset dy="8"/>
<feGaussianBlur stdDeviation="10"/>
<feComposite in2="hardAlpha" operator="out"/>
<feColorMatrix type="matrix" values="0 0 0 0 1 0 0 0 0 0.301961 0 0 0 0 0.301961 0 0 0 0.25 0"/>
<feBlend mode="normal" in2="BackgroundImageFix" result="effect1_dropShadow_16_722"/>
<feBlend mode="normal" in="SourceGraphic" in2="effect1_dropShadow_16_722" result="shape"/>
</filter>
</defs>
</svg>
