<svg width="140" height="140" viewBox="0 0 140 140" fill="none" xmlns="http://www.w3.org/2000/svg">
<g filter="url(#filter0_d_42_582)">
<circle cx="70" cy="62" r="40" fill="white"/>
</g>
<path d="M70 67.0002C71.7682 67.0002 73.4638 66.2978 74.7141 65.0475C75.9643 63.7973 76.6667 62.1016 76.6667 60.3335V52.0002C76.6667 50.2321 75.9643 48.5364 74.7141 47.2861C73.4638 46.0359 71.7682 45.3335 70 45.3335C68.2319 45.3335 66.5362 46.0359 65.286 47.2861C64.0358 48.5364 63.3334 50.2321 63.3334 52.0002V60.3335C63.3334 62.1016 64.0358 63.7973 65.286 65.0475C66.5362 66.2978 68.2319 67.0002 70 67.0002Z" fill="#4766B8"/>
<path d="M81.6667 60.3337C81.6667 59.8916 81.4911 59.4677 81.1786 59.1551C80.866 58.8426 80.4421 58.667 80 58.667C79.558 58.667 79.1341 58.8426 78.8215 59.1551C78.509 59.4677 78.3334 59.8916 78.3334 60.3337C78.3334 62.5438 77.4554 64.6634 75.8926 66.2262C74.3298 67.789 72.2102 68.667 70 68.667C67.7899 68.667 65.6703 67.789 64.1075 66.2262C62.5447 64.6634 61.6667 62.5438 61.6667 60.3337C61.6667 59.8916 61.4911 59.4677 61.1786 59.1551C60.866 58.8426 60.4421 58.667 60 58.667C59.558 58.667 59.1341 58.8426 58.8215 59.1551C58.509 59.4677 58.3334 59.8916 58.3334 60.3337C58.3367 63.1367 59.3491 65.8449 61.1853 67.9628C63.0216 70.0806 65.559 71.4666 68.3334 71.867V75.3337H64.8167C64.4233 75.3337 64.046 75.4899 63.7678 75.7681C63.4897 76.0463 63.3334 76.4236 63.3334 76.817V77.1837C63.3334 77.5771 63.4897 77.9544 63.7678 78.2325C64.046 78.5107 64.4233 78.667 64.8167 78.667H75.1834C75.5768 78.667 75.9541 78.5107 76.2322 78.2325C76.5104 77.9544 76.6667 77.5771 76.6667 77.1837V76.817C76.6667 76.4236 76.5104 76.0463 76.2322 75.7681C75.9541 75.4899 75.5768 75.3337 75.1834 75.3337H71.6667V71.867C74.441 71.4666 76.9785 70.0806 78.8147 67.9628C80.651 65.8449 81.6634 63.1367 81.6667 60.3337Z" fill="#4766B8"/>
<defs>
<filter id="filter0_d_42_582" x="0" y="0" width="140" height="140" filterUnits="userSpaceOnUse" color-interpolation-filters="sRGB">
<feFlood flood-opacity="0" result="BackgroundImageFix"/>
<feColorMatrix in="SourceAlpha" type="matrix" values="0 0 0 0 0 0 0 0 0 0 0 0 0 0 0 0 0 0 127 0" result="hardAlpha"/>
<feOffset dy="8"/>
<feGaussianBlur stdDeviation="15"/>
<feComposite in2="hardAlpha" operator="out"/>
<feColorMatrix type="matrix" values="0 0 0 0 0.704167 0 0 0 0 0.73375 0 0 0 0 1 0 0 0 0.3 0"/>
<feBlend mode="normal" in2="BackgroundImageFix" result="effect1_dropShadow_42_582"/>
<feBlend mode="normal" in="SourceGraphic" in2="effect1_dropShadow_42_582" result="shape"/>
</filter>
</defs>
</svg>
