<svg width="140" height="140" viewBox="0 0 140 140" fill="none" xmlns="http://www.w3.org/2000/svg">
<g filter="url(#filter0_d_13_165)">
<circle cx="70" cy="62" r="40" fill="#4766B8"/>
</g>
<path d="M75.9667 63.25C76.4185 62.3436 76.6579 61.3462 76.6667 60.3334V52C76.6482 50.3537 76.0212 48.7724 74.9065 47.5608C73.7917 46.3492 72.268 45.5929 70.6289 45.4377C68.9898 45.2824 67.3512 45.7393 66.0288 46.7201C64.7064 47.7009 63.7938 49.1364 63.4667 50.75M81.6667 60.3334C81.6667 59.8914 81.4911 59.4674 81.1785 59.1549C80.8659 58.8423 80.442 58.6667 80 58.6667C79.558 58.6667 79.134 58.8423 78.8215 59.1549C78.5089 59.4674 78.3333 59.8914 78.3333 60.3334C78.3285 61.7895 77.9312 63.2173 77.1833 64.4667L79.6333 67C80.9746 65.0369 81.684 62.7109 81.6667 60.3334ZM70 67H70.2667L63.3333 60.05V60.3334C63.3333 62.1015 64.0357 63.7972 65.2859 65.0474C66.5362 66.2977 68.2319 67 70 67ZM84.5166 74.15L57.85 47.4834C57.6946 47.328 57.5101 47.2047 57.3071 47.1206C57.104 47.0365 56.8864 46.9932 56.6667 46.9932C56.4469 46.9932 56.2293 47.0365 56.0262 47.1206C55.8232 47.2047 55.6387 47.328 55.4833 47.4834C55.1695 47.7972 54.9932 48.2229 54.9932 48.6667C54.9932 49.1105 55.1695 49.5362 55.4833 49.85L82.15 76.5167C82.3049 76.6729 82.4893 76.7969 82.6924 76.8815C82.8955 76.9661 83.1133 77.0097 83.3333 77.0097C83.5533 77.0097 83.7712 76.9661 83.9743 76.8815C84.1774 76.7969 84.3617 76.6729 84.5166 76.5167C84.6729 76.3618 84.7969 76.1774 84.8815 75.9743C84.9661 75.7712 85.0096 75.5534 85.0096 75.3334C85.0096 75.1134 84.9661 74.8955 84.8815 74.6924C84.7969 74.4893 84.6729 74.305 84.5166 74.15Z" fill="white"/>
<path d="M75 75.3334H71.6666V71.8667C72.6098 71.7354 73.5333 71.4892 74.4166 71.1334L71.75 68.4667C71.1763 68.6009 70.5891 68.668 70 68.6667C67.7898 68.6667 65.6702 67.7888 64.1074 66.226C62.5446 64.6632 61.6666 62.5436 61.6666 60.3334C61.6666 59.8914 61.4911 59.4675 61.1785 59.1549C60.8659 58.8423 60.442 58.6667 60 58.6667C59.558 58.6667 59.134 58.8423 58.8215 59.1549C58.5089 59.4675 58.3333 59.8914 58.3333 60.3334C58.3366 63.1365 59.349 65.8447 61.1853 67.9625C63.0216 70.0804 65.559 71.4663 68.3333 71.8667V75.3334H65C64.558 75.3334 64.134 75.509 63.8215 75.8216C63.5089 76.1341 63.3333 76.5581 63.3333 77.0001C63.3333 77.4421 63.5089 77.866 63.8215 78.1786C64.134 78.4912 64.558 78.6667 65 78.6667H75C75.442 78.6667 75.8659 78.4912 76.1785 78.1786C76.491 77.866 76.6666 77.4421 76.6666 77.0001C76.6666 76.5581 76.491 76.1341 76.1785 75.8216C75.8659 75.509 75.442 75.3334 75 75.3334Z" fill="white"/>
<defs>
<filter id="filter0_d_13_165" x="0" y="0" width="140" height="140" filterUnits="userSpaceOnUse" color-interpolation-filters="sRGB">
<feFlood flood-opacity="0" result="BackgroundImageFix"/>
<feColorMatrix in="SourceAlpha" type="matrix" values="0 0 0 0 0 0 0 0 0 0 0 0 0 0 0 0 0 0 127 0" result="hardAlpha"/>
<feOffset dy="8"/>
<feGaussianBlur stdDeviation="15"/>
<feComposite in2="hardAlpha" operator="out"/>
<feColorMatrix type="matrix" values="0 0 0 0 0.204167 0 0 0 0 0.278444 0 0 0 0 1 0 0 0 0.3 0"/>
<feBlend mode="normal" in2="BackgroundImageFix" result="effect1_dropShadow_13_165"/>
<feBlend mode="normal" in="SourceGraphic" in2="effect1_dropShadow_13_165" result="shape"/>
</filter>
</defs>
</svg>
